HIERARCHY
ROOT root     
{
	OFFSET 0.0000 0.0000 0.0000
	CHANNELS 6 Xposition Yposition Zposition Zrotation Yrotation Xrotation
	JOINT pelvis   
	{
		OFFSET 0.0000 0.0000 0.0000
		CHANNELS 3 Zrotation Yrotation Xrotation
		JOINT thorax   
		{
			OFFSET 0.0000 23.0750 -5.0000
			CHANNELS 3 Zrotation Yrotation Xrotation
			JOINT rclavicle
			{
				OFFSET 0.0000 28.0009 0.0000
				CHANNELS 3 Zrotation Yrotation Xrotation
				JOINT rhumerus 
				{
					OFFSET -18.5725 5.5939 0.0000
					CHANNELS 3 Zrotation Yrotation Xrotation
					JOINT rradius  
					{
						OFFSET -24.8459 0.0000 0.0000
						CHANNELS 3 Zrotation Yrotation Xrotation
						JOINT rhand    
						{
							OFFSET -24.5477 0.0000 0.0000
							CHANNELS 3 Zrotation Yrotation Xrotation
							End Site
							{
								OFFSET -8.1826 0.0000 0.0000
							}
						}
					}
				}
			}
			JOINT lclavicle
			{
				OFFSET 0.0000 28.0009 0.0000
				CHANNELS 3 Zrotation Yrotation Xrotation
				JOINT lhumerus 
				{
					OFFSET 18.5725 5.5939 0.0000
					CHANNELS 3 Zrotation Yrotation Xrotation
					JOINT lradius  
					{
						OFFSET 24.8459 0.0000 0.0000
						CHANNELS 3 Zrotation Yrotation Xrotation
						JOINT lhand    
						{
							OFFSET 24.5477 0.0000 0.0000
							CHANNELS 3 Zrotation Yrotation Xrotation
							End Site
							{
								OFFSET 8.1826 0.0000 0.0000
							}
						}
					}
				}
			}
			JOINT head     
			{
				OFFSET 0.0000 35.2030 0.0000
				CHANNELS 3 Zrotation Yrotation Xrotation
				End Site
				{
					OFFSET 0.0000 11.7343 0.0000
				}
			}
		}
		JOINT rfemur   
		{
			OFFSET -8.2817 0.0000 0.0000
			CHANNELS 3 Zrotation Yrotation Xrotation
			JOINT rtibia   
			{
				OFFSET 0.0000 -43.3627 0.0000
				CHANNELS 3 Zrotation Yrotation Xrotation
				JOINT rfoot    
				{
					OFFSET 0.0000 -38.2947 0.0000
					CHANNELS 3 Zrotation Yrotation Xrotation
					JOINT rtoes    
					{
						OFFSET 0.0000 0.0000 16.6054
						CHANNELS 3 Zrotation Yrotation Xrotation
						End Site
						{
							OFFSET 0.0000 0.0000 5.5351
						}
					}
				}
			}
		}
		JOINT lfemur   
		{
			OFFSET 8.2817 0.0000 0.0000
			CHANNELS 3 Zrotation Yrotation Xrotation
			JOINT ltibia   
			{
				OFFSET 0.0000 -43.3627 0.0000
				CHANNELS 3 Zrotation Yrotation Xrotation
				JOINT lfoot    
				{
					OFFSET 0.0000 -38.2947 0.0000
					CHANNELS 3 Zrotation Yrotation Xrotation
					JOINT ltoes    
					{
						OFFSET 0.0000 0.0000 16.6054
						CHANNELS 3 Zrotation Yrotation Xrotation
						End Site
						{
							OFFSET 0.0000 0.0000 5.5351
						}
					}
				}
			}
		}
	}
}
MOTION
Frames: 11
Frame Time: .0333333
66.4 78.174 6.4862 -67.8695 86.3273 -44.5981 0 -0 0 1.07891 4.51539 16.3533 19.8366 -7.32364 3.55238e-05 42.2424 14.4382 6.59817 180 81.9676 180 -1.05599 5.2732 -0.0485995 -18.7239 17.1103 -7.97329e-06 -56.2928 24.6463 11.0595 6.55234e-07 -68.4929 -9.6248e-07 -3.89368 6.91993 -0.235498 3.43389 -5.17161 -18.0857 6.56409 -16.4404 -24.7485 -0 -0 54.5013 -3.39008e-06 7.5406 -9.72848 -1.2814 -6.34425e-06 -62.418 -9.11731 7.73446 -68.1205 -0 -0 40.8597 8.71057e-06 11.5557 -5.86305 -1.19665 -1.65338e-05 -30.6136 
67.65 77.967 6.5046 -71.3685 86.2866 -48.2685 0 -0 0 0.861879 4.66153 16.25 20.0509 -7.35026 2.57986e-05 42.4079 13.742 6.57701 -180 81.8383 -180 -1.02899 5.30499 -0.0476994 -18.7998 17.1463 0.000106298 -56.1603 24.5783 11.0187 9.61955e-07 -68.4768 -6.54692e-07 -3.89977 6.91148 -0.235596 3.51473 -5.18084 -18.3471 6.27775 -16.7558 -23.6166 -0 -0 54.4244 -6.23803e-07 8.05147 -9.10959 -1.28301 -8.36175e-07 -64.6402 -8.48726 7.3705 -67.7038 -0 -0 40.3754 4.12747e-06 11.4424 -4.8423 -0.978811 -4.61048e-06 -31.3848 
68.914 77.735 6.5164 -74.0396 86.2319 -51.1235 0 -0 0 0.619315 4.84003 16.1412 20.2659 -7.36586 -6.29025e-06 42.6082 13.014 6.58228 180 81.7843 180 -1.01731 5.34247 -0.0475005 -18.8747 17.1799 0.00015144 -56.0361 24.4673 10.9619 9.61205e-07 -68.4556 -6.53928e-07 -3.91068 6.8934 -0.2356 3.59954 -5.19173 -18.6063 5.95021 -17.0127 -22.523 -0 -0 54.4537 3.21742e-06 8.5528 -8.45817 -1.26719 -1.10581e-07 -66.9388 -7.87872 7.06353 -67.3477 -0 -0 40.2844 -6.12801e-06 11.3658 -3.71933 -0.747093 -9.91905e-07 -31.8053 
70.189 77.483 6.5221 -75.7956 86.1634 -53.0754 0 -0 0 0.343613 5.04823 16.0291 20.4855 -7.36183 1.10727e-05 42.8485 12.2609 6.61139 -180 81.8204 -180 -1.01568 5.38668 -0.0477987 -18.9669 17.2033 -0.000191256 -55.9123 24.325 10.8647 9.24584e-07 -68.4514 -1.35914e-06 -3.9309 6.87585 -0.236199 3.68774 -5.19478 -18.868 5.58089 -17.2022 -21.4783 -0 -0 54.5946 1.06055e-05 9.03467 -7.76101 -1.2301 -2.34913e-08 -69.339 -7.32985 6.83981 -67.0783 -0 -0 40.6109 -2.55167e-06 11.2965 -2.53445 -0.506101 -1.0366e-06 -31.8849 
71.471 77.212 6.5214 -76.6033 86.0796 -54.0833 0 -0 0 0.0276978 5.28293 15.9117 20.7117 -7.33726 -1.45326e-05 43.1261 11.4979 6.66546 -180 81.9598 -180 -1.02149 5.43486 -0.0484998 -19.0687 17.2176 0.000135957 -55.7948 24.1439 10.7216 9.6113e-07 -68.4548 -6.53858e-07 -3.95893 6.85501 -0.237195 3.77572 -5.18222 -19.1266 5.16935 -17.3189 -20.4958 -0 -0 54.8584 -7.6855e-06 9.49554 -7.02082 -1.17119 1.64668e-06 -71.7609 -6.87845 6.72332 -66.9147 -0 -0 41.3645 2.36072e-06 11.2029 -1.3535 -0.268108 -9.06305e-07 -31.5207 
72.754 76.926 6.5144 -76.4869 86.0002 -54.1767 0 -0 0 -0.336178 5.53656 15.7925 20.9488 -7.28757 2.67415e-05 43.4414 10.7384 6.74363 -180 82.2236 -180 -1.02882 5.48552 -0.0493013 -19.1884 17.2207 -7.13819e-05 -55.6828 23.9289 10.516 6.54551e-07 -68.4751 -9.61805e-07 -3.99247 6.83589 -0.238597 3.86056 -5.14395 -19.3763 4.71441 -17.3616 -19.5892 -0 -0 55.25 1.32189e-05 9.93557 -6.21681 -1.08668 -2.13255e-06 -74.1789 -6.55049 6.72855 -66.8573 -0 -0 42.522 5.50976e-07 11.0622 -0.252799 -0.0494002 3.52014e-07 -30.5929 
74.036 76.629 6.5018 -75.5427 85.9142 -53.446 0 -0 0 -0.745476 5.80234 15.67 21.1981 -7.21632 -5.74506e-05 43.7921 10.0006 6.84585 -180 82.6072 -180 -1.0327 5.53554 -0.0498999 -19.316 17.2135 -8.45758e-05 -55.5886 23.6663 10.2526 0 -68.4878 -0 -4.02359 6.81275 -0.239598 3.93517 -5.076 -19.6076 4.22231 -17.328 -18.7648 -0 -0 55.7743 -8.09967e-07 10.3579 -5.34671 -0.975698 2.44172e-06 -76.4776 -6.35658 6.86229 -66.8978 -0 -0 44.0376 3.09374e-07 10.8639 0.700798 0.134495 -6.96831e-07 -29.1596 
75.314 76.325 6.4835 -73.8941 85.8352 -52.0203 0 -0 0 -1.20248 6.0675 15.5503 21.4608 -7.12261 7.46031e-05 44.1838 9.29682 6.97005 -180 83.1387 -180 -1.02741 5.58453 -0.0501001 -19.4522 17.1958 0.000103802 -55.5108 23.3501 9.92861 9.62405e-07 -68.4921 -6.55163e-07 -4.04346 6.79083 -0.239996 3.99502 -4.97068 -19.8121 3.69509 -17.2263 -18.0281 -0 -0 56.4324 2.02001e-06 10.7654 -4.37212 -0.830414 -4.57197e-06 -78.6433 -6.29465 7.11504 -67.013 -0 -0 45.8403 -6.48863e-06 10.6153 1.4377 0.269399 8.53295e-07 -27.2481 
76.584 76.018 6.4598 -71.6968 85.7547 -50.0532 0 -0 0 -1.70317 6.31961 15.4362 21.7375 -7.00793 -4.40899e-05 44.6178 8.63815 7.1129 -180 83.8208 -180 -1.00901 5.63168 -0.049601 -19.6021 17.1619 -7.91203e-06 -55.4493 22.9806 9.54058 0 -68.4844 -0 -4.04311 6.77322 -0.2394 4.03445 -4.82496 -19.9785 3.13909 -17.0632 -17.3834 -0 -0 57.2265 5.27675e-06 11.16 -3.26398 -0.643501 -9.14441e-07 -80.6135 -6.34945 7.46701 -67.1715 -0 -0 47.8496 2.15443e-06 10.3358 1.90063 0.346599 2.0591e-07 -24.96 
77.845 75.713 6.4305 -69.0885 85.6841 -47.6847 0 -0 0 -2.24127 6.54549 15.3295 22.025 -6.87506 2.26456e-05 45.0998 8.03179 7.26989 -180 84.6523 -180 -0.975895 5.67682 -0.0483997 -19.7648 17.1052 7.05452e-06 -55.4038 22.5576 9.0915 9.61429e-07 -68.4658 -6.54175e-07 -4.01221 6.76322 -0.237201 4.04803 -4.63836 -20.0929 2.56151 -16.8505 -16.836 -0 -0 58.1509 -1.247e-06 11.5399 -1.9915 -0.406494 -4.20436e-06 -82.3409 -6.49879 7.88871 -67.3403 -0 -0 49.9828 -1.76421e-06 10.0542 2.05257 0.363903 -4.24906e-07 -22.4894 
79.093 75.413 6.3947 -66.2279 85.6174 -45.0702 0 -0 0 -2.81139 6.73149 15.2307 22.3214 -6.72915 -7.11925e-07 45.6333 7.48461 7.43698 -180 85.6642 -180 -0.930207 5.72018 -0.0465003 -19.9358 17.0321 -2.85053e-05 -55.3738 22.061 8.60028 6.52275e-07 -68.4143 -9.59559e-07 -3.93915 6.76117 -0.232803 4.03317 -4.41119 -20.1471 1.96974 -16.603 -16.3918 -0 -0 59.203 -6.01474e-07 11.8977 -0.529511 -0.111601 -4.63087e-07 -83.771 -6.71671 8.344 -67.4878 -0 -0 52.1546 -2.32764e-06 9.80283 1.87984 0.324704 -5.60616e-07 -20.0748 
